<?xml version="1.0" encoding="utf-8"?>
<!-- Generator: Adobe Illustrator 25.4.1, SVG Export Plug-In . SVG Version: 6.00 Build 0)  -->
<svg version="1.1" id="Layer_1" xmlns="http://www.w3.org/2000/svg" xmlns:xlink="http://www.w3.org/1999/xlink" x="0px" y="0px"
	 viewBox="0 0 40 40" style="enable-background:new 0 0 40 40;" xml:space="preserve">
<style type="text/css">
	.st0{fill:#EFD10E;}
	.st1{fill:#FFFFFF;}
</style>
<g>
	<path class="st0" d="M8.6,22.5C8.8,22.3,9,22,9.3,21.8C7.9,20.7,7,19,7,17.1c0-3.4,2.8-6.2,6.2-6.2c1.6,0,3,0.6,4.1,1.6
		c0.3-0.2,0.6-0.4,0.9-0.5c-1.3-1.2-3-2-4.9-2c-3.9,0-7.2,3.2-7.2,7.2C6,19.2,7,21.2,8.6,22.5z"/>
	<g>
		<path class="st0" d="M13.2,8.4c-0.3,0-0.5-0.2-0.5-0.5V4.3c0-0.3,0.2-0.5,0.5-0.5s0.5,0.2,0.5,0.5v3.6C13.7,8.2,13.5,8.4,13.2,8.4
			z"/>
	</g>
	<g>
		<path class="st0" d="M6.8,11.1c-0.1,0-0.2,0-0.3-0.1L3.9,8.4c-0.2-0.2-0.2-0.5,0-0.7c0.2-0.2,0.5-0.2,0.7,0l2.6,2.6
			c0.2,0.2,0.2,0.5,0,0.7C7,11,6.9,11.1,6.8,11.1z"/>
	</g>
	<g>
		<path class="st0" d="M4.1,17.5H0.5c-0.3,0-0.5-0.2-0.5-0.5c0-0.3,0.2-0.5,0.5-0.5h3.6c0.3,0,0.5,0.2,0.5,0.5
			C4.6,17.3,4.4,17.5,4.1,17.5z"/>
	</g>
	<g>
		<path class="st0" d="M4.2,26.5c-0.1,0-0.2,0-0.3-0.1c-0.2-0.2-0.2-0.5,0-0.7l2.6-2.6c0.2-0.2,0.5-0.2,0.7,0c0.2,0.2,0.2,0.5,0,0.7
			l-2.6,2.6C4.4,26.5,4.3,26.5,4.2,26.5z"/>
	</g>
	<g>
		<path class="st0" d="M19.7,11.1c-0.1,0-0.2,0-0.3-0.1c-0.2-0.2-0.2-0.5,0-0.7l2.6-2.6c0.2-0.2,0.5-0.2,0.7,0
			c0.2,0.2,0.2,0.5,0,0.7L20,10.9C19.9,11,19.8,11.1,19.7,11.1z"/>
	</g>
	<g>
		<path class="st1" d="M19.6,30.2l0.2-0.2c0.2-0.2,0.2-0.6,0-0.8c-0.2-0.2-0.6-0.2-0.8,0l-0.2,0.2l-0.2-0.2c-0.2-0.2-0.6-0.2-0.8,0
			c-0.2,0.2-0.2,0.6,0,0.8l0.2,0.2l-0.2,0.2c-0.2,0.2-0.2,0.6,0,0.8c0.1,0.1,0.3,0.2,0.4,0.2c0.1,0,0.3-0.1,0.4-0.2l0.2-0.2l0.2,0.2
			c0.1,0.1,0.3,0.2,0.4,0.2s0.3-0.1,0.4-0.2c0.2-0.2,0.2-0.6,0-0.8L19.6,30.2z"/>
		<path class="st1" d="M23.8,33.1l0.2-0.2c0.2-0.2,0.2-0.6,0-0.8s-0.6-0.2-0.8,0L23,32.3l-0.2-0.2c-0.2-0.2-0.6-0.2-0.8,0
			c-0.2,0.2-0.2,0.6,0,0.8l0.2,0.2l-0.2,0.2c-0.2,0.2-0.2,0.6,0,0.8c0.1,0.1,0.3,0.2,0.4,0.2c0.1,0,0.3-0.1,0.4-0.2L23,34l0.2,0.2
			c0.1,0.1,0.3,0.2,0.4,0.2c0.1,0,0.3-0.1,0.4-0.2c0.2-0.2,0.2-0.6,0-0.8L23.8,33.1z"/>
		<path class="st1" d="M19.6,36l0.2-0.2c0.2-0.2,0.2-0.6,0-0.8c-0.2-0.2-0.6-0.2-0.8,0l-0.2,0.2L18.5,35c-0.2-0.2-0.6-0.2-0.8,0
			c-0.2,0.2-0.2,0.6,0,0.8l0.2,0.2l-0.2,0.2c-0.2,0.2-0.2,0.6,0,0.8c0.1,0.1,0.3,0.2,0.4,0.2c0.1,0,0.3-0.1,0.4-0.2l0.2-0.2l0.2,0.2
			c0.1,0.1,0.3,0.2,0.4,0.2s0.3-0.1,0.4-0.2c0.2-0.2,0.2-0.6,0-0.8L19.6,36z"/>
		<path class="st1" d="M28,30.2l0.2-0.2c0.2-0.2,0.2-0.6,0-0.8c-0.2-0.2-0.6-0.2-0.8,0l-0.2,0.2L27,29.2c-0.2-0.2-0.6-0.2-0.8,0
			c-0.2,0.2-0.2,0.6,0,0.8l0.2,0.2l-0.2,0.2c-0.2,0.2-0.2,0.6,0,0.8c0.1,0.1,0.3,0.2,0.4,0.2c0.1,0,0.3-0.1,0.4-0.2l0.2-0.2l0.2,0.2
			c0.1,0.1,0.3,0.2,0.4,0.2c0.1,0,0.3-0.1,0.4-0.2c0.2-0.2,0.2-0.6,0-0.8L28,30.2z"/>
		<path class="st1" d="M28,36l0.2-0.2c0.2-0.2,0.2-0.6,0-0.8c-0.2-0.2-0.6-0.2-0.8,0l-0.2,0.2L27,35c-0.2-0.2-0.6-0.2-0.8,0
			c-0.2,0.2-0.2,0.6,0,0.8l0.2,0.2l-0.2,0.2c-0.2,0.2-0.2,0.6,0,0.8c0.1,0.1,0.3,0.2,0.4,0.2c0.1,0,0.3-0.1,0.4-0.2l0.2-0.2l0.2,0.2
			c0.1,0.1,0.3,0.2,0.4,0.2c0.1,0,0.3-0.1,0.4-0.2c0.2-0.2,0.2-0.6,0-0.8L28,36z"/>
	</g>
	<path class="st1" d="M32.9,18.1c-1.5-3.8-5.3-6.4-9.4-6.4c-5.5,0-9.9,4.4-10.1,9.8c-3.4,0.2-6,3-6,6.4c0,3.3,2.4,6,5.6,6.3v0.1h2
		v-1.2h-0.8l-0.6,0c-2.8-0.1-5.1-2.4-5.1-5.2c0-2.9,2.3-5.2,5.3-5.2h0l0.8,0l0-0.9c0-4.9,4-9,9-9c3.5,0,6.7,2.1,8.1,5.2
		c-3.4,0.4-5.5,1.8-6.6,4.4c-0.1,0.3,0,0.6,0.3,0.8c0.1,0,0.2,0,0.2,0c0.2,0,0.4-0.1,0.5-0.4c1-2.3,3-3.5,6.4-3.8
		c3.6,0.3,6.3,3.4,6.3,7c0,3.8-3,6.9-6.8,7h-1v1.2h1l0.6,0v0c4.2-0.4,7.3-3.9,7.3-8.1C40,22.1,36.9,18.6,32.9,18.1z"/>
</g>
</svg>
