<?xml version="1.0" encoding="utf-8"?>
<!-- Generator: Adobe Illustrator 25.4.1, SVG Export Plug-In . SVG Version: 6.00 Build 0)  -->
<svg version="1.1" id="Layer_1" xmlns="http://www.w3.org/2000/svg" xmlns:xlink="http://www.w3.org/1999/xlink" x="0px" y="0px"
	 viewBox="0 0 40 40" style="enable-background:new 0 0 40 40;" xml:space="preserve">
<style type="text/css">
	.st0{fill:#EFD10E;}
	.st1{fill:#FFFFFF;}
</style>
<g>
	<path class="st0" d="M8.6,21c0.2-0.2,0.5-0.4,0.7-0.6C7.9,19.2,7,17.5,7,15.6c0-3.4,2.8-6.2,6.2-6.2c1.6,0,3,0.6,4.1,1.6
		c0.3-0.2,0.6-0.4,0.9-0.5c-1.3-1.2-3-2-4.9-2c-3.9,0-7.2,3.2-7.2,7.2C6.1,17.8,7,19.7,8.6,21z"/>
	<g>
		<path class="st0" d="M13.2,6.9c-0.3,0-0.5-0.2-0.5-0.5V2.8c0-0.3,0.2-0.5,0.5-0.5c0.3,0,0.5,0.2,0.5,0.5v3.6
			C13.7,6.7,13.5,6.9,13.2,6.9z"/>
	</g>
	<g>
		<path class="st0" d="M6.8,9.6c-0.1,0-0.2,0-0.3-0.1L3.9,6.9c-0.2-0.2-0.2-0.5,0-0.7s0.5-0.2,0.7,0l2.6,2.6c0.2,0.2,0.2,0.5,0,0.7
			C7,9.5,6.9,9.6,6.8,9.6z"/>
	</g>
	<g>
		<path class="st0" d="M4.1,16H0.5C0.2,16,0,15.8,0,15.6c0-0.3,0.2-0.5,0.5-0.5h3.6c0.3,0,0.5,0.2,0.5,0.5C4.6,15.8,4.4,16,4.1,16z"
			/>
	</g>
	<g>
		<path class="st0" d="M4.2,25.1c-0.1,0-0.2,0-0.3-0.1c-0.2-0.2-0.2-0.5,0-0.7l2.6-2.6c0.2-0.2,0.5-0.2,0.7,0c0.2,0.2,0.2,0.5,0,0.7
			l-2.6,2.6C4.5,25,4.3,25.1,4.2,25.1z"/>
	</g>
	<g>
		<path class="st0" d="M19.7,9.6c-0.1,0-0.2,0-0.3-0.1c-0.2-0.2-0.2-0.5,0-0.7l2.6-2.6c0.2-0.2,0.5-0.2,0.7,0c0.2,0.2,0.2,0.5,0,0.7
			L20,9.5C19.9,9.5,19.8,9.6,19.7,9.6z"/>
	</g>
	<path class="st1" d="M32.5,35.5l0.2-0.2c0.2-0.2,0.2-0.6,0-0.8c-0.2-0.2-0.6-0.2-0.8,0l-0.2,0.2l-0.2-0.2c-0.2-0.2-0.6-0.2-0.8,0
		c-0.2,0.2-0.2,0.6,0,0.8l0.2,0.2l-0.2,0.2c-0.2,0.2-0.2,0.6,0,0.8c0.1,0.1,0.3,0.2,0.4,0.2c0.1,0,0.3-0.1,0.4-0.2l0.2-0.2l0.2,0.2
		c0.1,0.1,0.3,0.2,0.4,0.2c0.1,0,0.3-0.1,0.4-0.2c0.2-0.2,0.2-0.6,0-0.8L32.5,35.5z"/>
	<path class="st1" d="M24.5,31.8l2.9-2c0.3-0.2,0.3-0.6,0.2-0.9s-0.6-0.3-0.9-0.2L24,30.7v-2.9c0-0.3-0.3-0.6-0.6-0.6
		s-0.6,0.3-0.6,0.6v2.9l-2.7-1.9c-0.3-0.2-0.7-0.1-0.9,0.2s-0.1,0.7,0.2,0.9l2.9,2l-2.9,2c-0.3,0.2-0.3,0.6-0.2,0.9
		c0.1,0.2,0.3,0.3,0.5,0.3c0.1,0,0.2,0,0.3-0.1l2.7-1.9v3.2c0,0.3,0.3,0.6,0.6,0.6s0.6-0.3,0.6-0.6V33l2.7,1.9
		c0.1,0.1,0.2,0.1,0.3,0.1c0.2,0,0.4-0.1,0.5-0.3c0.2-0.3,0.1-0.7-0.2-0.9L24.5,31.8z"/>
	<path class="st1" d="M32.9,16.6c-1.5-3.8-5.3-6.4-9.4-6.4c-5.5,0-10,4.4-10.1,9.8c-3.4,0.2-6,3-6,6.4c0,3.3,2.4,6,5.6,6.3v0.1h3
		v-1.2h-1.9l-0.6,0c-2.8-0.1-5.1-2.4-5.1-5.2c0-2.9,2.3-5.2,5.3-5.2h0l0.8,0.1l0-0.9c0-4.9,4-9,9-9c3.5,0,6.7,2.1,8.1,5.2
		C28.3,17,26.1,18.4,25,21c-0.1,0.3,0,0.6,0.3,0.8c0.1,0,0.2,0,0.2,0c0.2,0,0.4-0.1,0.5-0.4c1-2.3,3-3.5,6.4-3.8
		c3.6,0.3,6.3,3.4,6.3,7c0,3.8-3,6.9-6.8,7h-1v1.2h1l0.6,0v0c4.2-0.4,7.3-3.9,7.3-8.1C40,20.6,36.9,17.1,32.9,16.6z"/>
</g>
</svg>
