<?xml version="1.0" encoding="utf-8"?>
<!-- Generator: Adobe Illustrator 25.4.1, SVG Export Plug-In . SVG Version: 6.00 Build 0)  -->
<svg version="1.1" id="Layer_1" xmlns="http://www.w3.org/2000/svg" xmlns:xlink="http://www.w3.org/1999/xlink" x="0px" y="0px"
	 viewBox="0 0 40 40" style="enable-background:new 0 0 40 40;" xml:space="preserve">
<style type="text/css">
	.st0{fill:#FFFFFF;}
</style>
<g>
	<path class="st0" d="M30.7,35.1l0.3-0.3c0.3-0.3,0.3-0.7,0-1c-0.3-0.3-0.7-0.3-1,0l-0.3,0.3l-0.3-0.3c-0.3-0.3-0.7-0.3-1,0
		s-0.3,0.7,0,1l0.3,0.3l-0.3,0.3c-0.3,0.3-0.3,0.7,0,1c0.1,0.1,0.3,0.2,0.5,0.2s0.4-0.1,0.5-0.2l0.3-0.3l0.3,0.3
		c0.1,0.1,0.3,0.2,0.5,0.2s0.4-0.1,0.5-0.2c0.3-0.3,0.3-0.7,0-1L30.7,35.1z"/>
	<path class="st0" d="M20.6,30.5l3.6-2.5c0.3-0.2,0.4-0.7,0.2-1.1c-0.2-0.3-0.7-0.4-1.1-0.2L20,29.1v-3.6c0-0.4-0.3-0.7-0.7-0.7
		c-0.4,0-0.7,0.3-0.7,0.7v3.6l-3.3-2.3c-0.3-0.2-0.8-0.2-1.1,0.2c-0.2,0.3-0.2,0.8,0.2,1.1l3.6,2.5L14.3,33
		c-0.3,0.2-0.4,0.7-0.2,1.1c0.1,0.2,0.4,0.3,0.6,0.3c0.1,0,0.3,0,0.4-0.1l3.3-2.3v3.9c0,0.4,0.3,0.7,0.7,0.7c0.4,0,0.7-0.3,0.7-0.7
		v-3.9l3.3,2.3c0.1,0.1,0.3,0.1,0.4,0.1c0.2,0,0.5-0.1,0.6-0.3c0.2-0.3,0.2-0.8-0.2-1.1L20.6,30.5z"/>
	<path class="st0" d="M31.3,11.8C29.4,7.2,24.9,4,19.8,4c-6.7,0-12.2,5.4-12.4,12c-4.1,0.2-7.4,3.7-7.4,7.8c0,4,3,7.3,6.9,7.7v0.1
		h2.8v-1.4H8.4l-0.7,0c-3.5-0.1-6.2-2.9-6.2-6.4c0-3.5,2.9-6.4,6.4-6.4h0l1,0l0-1.1c0-6,4.9-11,11-11c4.3,0,8.2,2.6,9.9,6.4
		c-4.2,0.5-6.8,2.2-8.1,5.4c-0.2,0.4,0,0.8,0.4,0.9c0.1,0,0.2,0.1,0.3,0.1c0.3,0,0.5-0.2,0.7-0.4c1.2-2.9,3.7-4.3,7.8-4.6
		c4.4,0.4,7.8,4.1,7.8,8.5c0,4.7-3.7,8.4-8.3,8.5h-1.6v1.4h1.6l0.7,0v0c5.1-0.5,9-4.7,9-9.9C40,16.7,36.2,12.5,31.3,11.8z"/>
</g>
</svg>
