<?xml version="1.0" encoding="utf-8"?>
<!-- Generator: Adobe Illustrator 25.4.1, SVG Export Plug-In . SVG Version: 6.00 Build 0)  -->
<svg version="1.1" id="Layer_1" xmlns="http://www.w3.org/2000/svg" xmlns:xlink="http://www.w3.org/1999/xlink" x="0px" y="0px"
	 viewBox="0 0 40 40" style="enable-background:new 0 0 40 40;" xml:space="preserve">
<style type="text/css">
	.st0{fill:#9DD3FF;}
	.st1{fill:#FFFFFF;}
</style>
<g>
	<path class="st0" d="M17.6,34.7L17.6,34.7L17.6,34.7c0.1-0.4-0.1-3.6-0.1-3.6c0-0.1-0.1-0.2-0.2-0.1c0,0-2.8,1.6-3.1,1.9l0,0l0,0
		c-0.1,0.1-0.2,0.2-0.3,0.4c-0.5,1-0.1,2.1,0.8,2.7c1,0.5,2.1,0.1,2.7-0.8C17.5,35,17.5,34.9,17.6,34.7z"/>
	<path class="st0" d="M23.9,32.7L23.9,32.7L23.9,32.7c0.1-0.4-0.1-3.6-0.1-3.6c0-0.1-0.1-0.2-0.2-0.1c0,0-2.8,1.6-3.1,1.9l0,0l0,0
		c-0.1,0.1-0.2,0.2-0.3,0.4c-0.5,1-0.1,2.1,0.8,2.7c1,0.5,2.1,0.1,2.7-0.8C23.8,33,23.9,32.9,23.9,32.7z"/>
	<path class="st1" d="M31.3,12.3c-1.9-4.7-6.4-7.8-11.5-7.8c-6.7,0-12.2,5.4-12.4,12C3.3,16.8,0,20.2,0,24.3c0,4,3,7.3,6.9,7.8v0.1
		h3.4v-1.4h-2l-0.7,0c-3.5-0.1-6.2-2.9-6.2-6.4c0-3.5,2.9-6.4,6.4-6.4h0l1,0l0-1.1c0-6,4.9-11,11-11c4.3,0,8.2,2.6,9.9,6.4
		c-4.2,0.5-6.8,2.2-8.1,5.4c-0.2,0.4,0,0.8,0.4,0.9c0.1,0,0.2,0.1,0.3,0.1c0.3,0,0.5-0.2,0.7-0.4c1.2-2.9,3.7-4.3,7.9-4.6
		c4.4,0.4,7.8,4.1,7.8,8.5c0,4.7-3.7,8.4-8.3,8.6h-2.4v1.4h2.4l0.7,0v0c5.1-0.5,9-4.7,9-9.9C40,17.2,36.2,12.9,31.3,12.3z"/>
</g>
</svg>
