<?xml version="1.0" encoding="utf-8"?>
<!-- Generator: Adobe Illustrator 25.4.1, SVG Export Plug-In . SVG Version: 6.00 Build 0)  -->
<svg version="1.1" id="Layer_1" xmlns="http://www.w3.org/2000/svg" xmlns:xlink="http://www.w3.org/1999/xlink" x="0px" y="0px"
	 viewBox="0 0 40 40" style="enable-background:new 0 0 40 40;" xml:space="preserve">
<style type="text/css">
	.st0{fill:#EFD10E;}
	.st1{fill:#9DD3FF;}
	.st2{fill:#FFFFFF;}
</style>
<g>
	<path class="st0" d="M8.6,21.7c0.2-0.2,0.5-0.4,0.7-0.6C8,19.9,7,18.2,7,16.3c0-3.4,2.8-6.2,6.2-6.2c1.6,0,3,0.6,4.1,1.6
		c0.3-0.2,0.6-0.4,0.9-0.5c-1.3-1.2-3-2-4.9-2c-3.9,0-7.2,3.2-7.2,7.2C6.1,18.4,7.1,20.4,8.6,21.7z"/>
	<g>
		<path class="st0" d="M13.3,7.6c-0.3,0-0.5-0.2-0.5-0.5V3.6c0-0.3,0.2-0.5,0.5-0.5c0.3,0,0.5,0.2,0.5,0.5v3.6
			C13.7,7.4,13.5,7.6,13.3,7.6z"/>
	</g>
	<g>
		<path class="st0" d="M6.8,10.3c-0.1,0-0.2,0-0.3-0.1L3.9,7.6c-0.2-0.2-0.2-0.5,0-0.7s0.5-0.2,0.7,0l2.6,2.6c0.2,0.2,0.2,0.5,0,0.7
			C7.1,10.3,6.9,10.3,6.8,10.3z"/>
	</g>
	<g>
		<path class="st0" d="M4.1,16.7H0.5c-0.3,0-0.5-0.2-0.5-0.5c0-0.3,0.2-0.5,0.5-0.5h3.6c0.3,0,0.5,0.2,0.5,0.5
			C4.6,16.5,4.4,16.7,4.1,16.7z"/>
	</g>
	<g>
		<path class="st0" d="M4.3,25.7c-0.1,0-0.2,0-0.3-0.1c-0.2-0.2-0.2-0.5,0-0.7l2.6-2.6c0.2-0.2,0.5-0.2,0.7,0s0.2,0.5,0,0.7
			l-2.6,2.6C4.5,25.7,4.4,25.7,4.3,25.7z"/>
	</g>
	<g>
		<path class="st0" d="M19.7,10.3c-0.1,0-0.2,0-0.3-0.1c-0.2-0.2-0.2-0.5,0-0.7l2.6-2.6c0.2-0.2,0.5-0.2,0.7,0
			c0.2,0.2,0.2,0.5,0,0.7L20,10.2C19.9,10.3,19.8,10.3,19.7,10.3z"/>
	</g>
	<path class="st1" d="M23.7,35.3L23.7,35.3L23.7,35.3c0.1-0.3-0.1-2.9-0.1-2.9c0-0.1-0.1-0.1-0.2-0.1c0,0-2.3,1.3-2.5,1.6l0,0l0,0
		c-0.1,0.1-0.2,0.2-0.2,0.3c-0.4,0.8-0.1,1.8,0.7,2.2c0.8,0.4,1.8,0.1,2.2-0.7C23.6,35.5,23.7,35.4,23.7,35.3z"/>
	<path class="st2" d="M32.9,17.3c-1.5-3.8-5.3-6.4-9.4-6.4c-5.5,0-9.9,4.4-10.1,9.8c-3.3,0.2-6,3-6,6.4c0,3.3,2.4,5.9,5.6,6.3v0.1
		h5.1v-1.2h-4l-0.6,0c-2.8-0.1-5.1-2.4-5.1-5.2c0-2.9,2.3-5.2,5.3-5.2h0l0.8,0l0-0.9c0-4.9,4-8.9,8.9-8.9c3.5,0,6.7,2.1,8.1,5.2
		c-3.4,0.4-5.5,1.8-6.6,4.4c-0.1,0.3,0,0.6,0.3,0.8c0.1,0,0.2,0,0.2,0c0.2,0,0.4-0.1,0.5-0.4c1-2.3,3-3.5,6.4-3.8
		c3.6,0.3,6.3,3.4,6.3,6.9c0,3.8-3,6.9-6.8,7h-4v1.2h4l0.6,0v0c4.2-0.4,7.3-3.8,7.3-8.1C40,21.3,36.9,17.8,32.9,17.3z"/>
</g>
</svg>
