<?xml version="1.0" encoding="utf-8"?>
<!-- Generator: Adobe Illustrator 25.4.1, SVG Export Plug-In . SVG Version: 6.00 Build 0)  -->
<svg version="1.1" id="Layer_1" xmlns="http://www.w3.org/2000/svg" xmlns:xlink="http://www.w3.org/1999/xlink" x="0px" y="0px"
	 viewBox="0 0 40 40" style="enable-background:new 0 0 40 40;" xml:space="preserve">
<style type="text/css">
	.st0{fill:#EFD10E;}
	.st1{fill:#9DD3FF;}
	.st2{fill:#FFFFFF;}
</style>
<g>
	<path class="st0" d="M8.5,21.3c0.2-0.2,0.5-0.4,0.7-0.6C7.9,19.6,7,17.9,7,15.9c0-3.4,2.8-6.2,6.2-6.2c1.6,0,3,0.6,4.1,1.6
		c0.3-0.2,0.6-0.4,0.9-0.5c-1.3-1.2-3-2-4.9-2C9.3,8.8,6,12,6,15.9C6,18.1,7,20,8.5,21.3z"/>
	<g>
		<path class="st0" d="M13.2,7.3c-0.3,0-0.5-0.2-0.5-0.5V3.2c0-0.3,0.2-0.5,0.5-0.5c0.3,0,0.5,0.2,0.5,0.5v3.6
			C13.7,7.1,13.4,7.3,13.2,7.3z"/>
	</g>
	<g>
		<path class="st0" d="M6.8,10c-0.1,0-0.2,0-0.3-0.1L3.9,7.3c-0.2-0.2-0.2-0.5,0-0.7s0.5-0.2,0.7,0l2.5,2.5c0.2,0.2,0.2,0.5,0,0.7
			C7,9.9,6.9,10,6.8,10z"/>
	</g>
	<g>
		<path class="st0" d="M4.1,16.4H0.5c-0.3,0-0.5-0.2-0.5-0.5s0.2-0.5,0.5-0.5h3.6c0.3,0,0.5,0.2,0.5,0.5S4.3,16.4,4.1,16.4z"/>
	</g>
	<g>
		<path class="st0" d="M4.2,25.4c-0.1,0-0.2,0-0.3-0.1c-0.2-0.2-0.2-0.5,0-0.7L6.4,22c0.2-0.2,0.5-0.2,0.7,0c0.2,0.2,0.2,0.5,0,0.7
			l-2.5,2.5C4.4,25.3,4.3,25.4,4.2,25.4z"/>
	</g>
	<g>
		<path class="st0" d="M19.6,10c-0.1,0-0.2,0-0.3-0.1c-0.2-0.2-0.2-0.5,0-0.7l2.5-2.5c0.2-0.2,0.5-0.2,0.7,0c0.2,0.2,0.2,0.5,0,0.7
			L20,9.8C19.9,9.9,19.7,10,19.6,10z"/>
	</g>
	<path class="st1" d="M21.9,30.3L21.9,30.3L21.9,30.3c0.1-0.3-0.1-2.9-0.1-2.9c0-0.1-0.1-0.1-0.2-0.1c0,0-2.3,1.3-2.5,1.6l0,0l0,0
		C19.1,28.9,19,29,19,29.1c-0.4,0.8-0.1,1.7,0.7,2.2s1.7,0.1,2.2-0.7C21.9,30.5,21.9,30.4,21.9,30.3z"/>
	<path class="st1" d="M22.6,36.1L22.6,36.1L22.6,36.1c0.1-0.3-0.1-2.9-0.1-2.9c0-0.1-0.1-0.1-0.2-0.1c0,0-2.3,1.3-2.5,1.6l0,0l0,0
		c-0.1,0.1-0.2,0.2-0.2,0.3c-0.4,0.8-0.1,1.7,0.7,2.2c0.8,0.4,1.7,0.1,2.2-0.7C22.5,36.4,22.6,36.3,22.6,36.1z"/>
	<path class="st1" d="M27.8,32.2L27.8,32.2L27.8,32.2c0.1-0.3-0.1-2.9-0.1-2.9c0-0.1-0.1-0.1-0.2-0.1c0,0-2.3,1.3-2.5,1.6l0,0l0,0
		c-0.1,0.1-0.2,0.2-0.2,0.3c-0.4,0.8-0.1,1.7,0.7,2.2c0.8,0.4,1.7,0.1,2.2-0.7C27.7,32.4,27.8,32.3,27.8,32.2z"/>
	<path class="st2" d="M32.8,16.9c-1.5-3.8-5.2-6.3-9.4-6.3c-5.5,0-9.9,4.4-10.1,9.8c-3.3,0.2-6,3-6,6.4c0,3.3,2.4,5.9,5.6,6.3v0.1
		h2.5v-1.2h-1.3l-0.6,0c-2.8-0.1-5-2.4-5-5.2c0-2.9,2.3-5.2,5.2-5.2h0l0.8,0l0-0.9c0-4.9,4-8.9,8.9-8.9c3.5,0,6.6,2.1,8.1,5.2
		c-3.4,0.4-5.5,1.8-6.6,4.4c-0.1,0.3,0,0.6,0.3,0.8c0.1,0,0.2,0,0.2,0c0.2,0,0.4-0.1,0.5-0.4c1-2.3,3-3.5,6.4-3.8
		c3.6,0.3,6.3,3.4,6.3,6.9c0,3.8-3,6.9-6.8,7h-0.7v1.2H32l0.6,0v0c4.2-0.4,7.3-3.8,7.3-8.1C39.9,20.9,36.8,17.5,32.8,16.9z"/>
</g>
</svg>
