<?xml version="1.0" encoding="utf-8"?>
<!-- Generator: Adobe Illustrator 25.4.1, SVG Export Plug-In . SVG Version: 6.00 Build 0)  -->
<svg version="1.1" id="Layer_1" xmlns="http://www.w3.org/2000/svg" xmlns:xlink="http://www.w3.org/1999/xlink" x="0px" y="0px"
	 viewBox="0 0 40 40" style="enable-background:new 0 0 40 40;" xml:space="preserve">
<style type="text/css">
	.st0{fill:#EFD10E;}
	.st1{fill:#FFFFFF;}
	.st2{fill:#9DD3FF;}
</style>
<g>
	<path class="st0" d="M8.6,21.3c0.2-0.2,0.5-0.4,0.7-0.6C7.9,19.5,7,17.8,7,15.9c0-3.4,2.8-6.2,6.2-6.2c1.6,0,3,0.6,4.1,1.6
		c0.3-0.2,0.6-0.4,0.9-0.5c-1.3-1.2-3-2-4.9-2c-3.9,0-7.2,3.2-7.2,7.2C6.1,18,7,20,8.6,21.3z"/>
	<g>
		<path class="st0" d="M13.2,7.2c-0.3,0-0.5-0.2-0.5-0.5V3.1c0-0.3,0.2-0.5,0.5-0.5c0.3,0,0.5,0.2,0.5,0.5v3.6
			C13.7,7,13.5,7.2,13.2,7.2z"/>
	</g>
	<g>
		<path class="st0" d="M6.8,9.9c-0.1,0-0.2,0-0.3-0.1L3.9,7.2C3.7,7,3.7,6.7,3.9,6.5c0.2-0.2,0.5-0.2,0.7,0l2.6,2.6
			c0.2,0.2,0.2,0.5,0,0.7C7,9.8,6.9,9.9,6.8,9.9z"/>
	</g>
	<g>
		<path class="st0" d="M4.1,16.3H0.5c-0.3,0-0.5-0.2-0.5-0.5c0-0.3,0.2-0.5,0.5-0.5h3.6c0.3,0,0.5,0.2,0.5,0.5
			C4.6,16.1,4.4,16.3,4.1,16.3z"/>
	</g>
	<g>
		<path class="st0" d="M4.2,25.4c-0.1,0-0.2,0-0.3-0.1c-0.2-0.2-0.2-0.5,0-0.7L6.4,22c0.2-0.2,0.5-0.2,0.7,0c0.2,0.2,0.2,0.5,0,0.7
			l-2.6,2.6C4.5,25.3,4.3,25.4,4.2,25.4z"/>
	</g>
	<g>
		<path class="st0" d="M19.7,9.9c-0.1,0-0.2,0-0.3-0.1c-0.2-0.2-0.2-0.5,0-0.7l2.6-2.6c0.2-0.2,0.5-0.2,0.7,0c0.2,0.2,0.2,0.5,0,0.7
			L20,9.7C19.9,9.8,19.8,9.9,19.7,9.9z"/>
	</g>
	<path class="st1" d="M32.9,16.9c-1.5-3.8-5.3-6.4-9.4-6.4c-5.5,0-10,4.4-10.1,9.8c-3.4,0.2-6,3-6,6.4c0,3.3,2.4,6,5.6,6.3v0.1h2.5
		v-1.2h-1.3l-0.6,0c-2.8-0.1-5.1-2.4-5.1-5.2c0-2.9,2.3-5.2,5.3-5.2h0l0.8,0l0-0.9c0-4.9,4-9,9-9c3.5,0,6.7,2.1,8.1,5.2
		c-3.4,0.4-5.5,1.8-6.6,4.4c-0.1,0.3,0,0.6,0.3,0.8c0.1,0,0.2,0,0.2,0c0.2,0,0.4-0.1,0.5-0.4c1-2.3,3-3.5,6.4-3.8
		c3.6,0.3,6.3,3.4,6.3,7c0,3.8-3,6.9-6.8,7h-0.7v1.2h0.7l0.6,0v0c4.2-0.4,7.3-3.9,7.3-8.1C40,20.9,36.9,17.4,32.9,16.9z"/>
	<path class="st2" d="M19,35.4L19,35.4L19,35.4c0.1-0.3-0.1-2.9-0.1-2.9c0-0.1-0.1-0.1-0.2-0.1c0,0-2.3,1.3-2.5,1.6l0,0l0,0
		c-0.1,0.1-0.2,0.2-0.2,0.3c-0.4,0.8-0.1,1.8,0.7,2.2c0.8,0.4,1.8,0.1,2.2-0.7C18.9,35.6,19,35.5,19,35.4z"/>
	<polygon class="st1" points="25.4,26.2 20.4,32.3 22.7,32.3 22,37 26.5,30.6 24.5,30.5 	"/>
</g>
</svg>
