<?xml version="1.0" encoding="utf-8"?>
<!-- Generator: Adobe Illustrator 25.4.1, SVG Export Plug-In . SVG Version: 6.00 Build 0)  -->
<svg version="1.1" id="Layer_1" xmlns="http://www.w3.org/2000/svg" xmlns:xlink="http://www.w3.org/1999/xlink" x="0px" y="0px"
	 viewBox="0 0 40 40" style="enable-background:new 0 0 40 40;" xml:space="preserve">
<style type="text/css">
	.st0{fill:#FFFFFF;}
	.st1{fill:#EFD10E;}
</style>
<g>
	<path class="st0" d="M32.8,19.1c-1.5-3.8-5.2-6.3-9.3-6.3c-5.5,0-9.9,4.4-10.1,9.8c-3.3,0.2-6,3-6,6.4c0,3.3,2.4,5.9,5.6,6.3v0.1
		h19l0.6,0v0c4.1-0.4,7.3-3.8,7.3-8.1C39.8,23.1,36.8,19.6,32.8,19.1z M31.9,34.1l-17.8,0l-0.6,0c-2.8-0.1-5-2.4-5-5.2
		c0-2.9,2.3-5.2,5.2-5.2h0l0.8,0l0-0.9c0-4.9,4-8.9,8.9-8.9c3.5,0,6.6,2.1,8.1,5.2c-3.4,0.4-5.5,1.8-6.6,4.4c-0.1,0.3,0,0.6,0.3,0.8
		c0.1,0,0.2,0,0.2,0c0.2,0,0.4-0.1,0.5-0.4c1-2.3,3-3.5,6.4-3.7c3.5,0.3,6.3,3.4,6.3,6.9C38.7,30.9,35.7,33.9,31.9,34.1z"/>
	<path class="st1" d="M8.5,23.5C8.7,23.2,9,23,9.3,22.8C7.9,21.7,7,20,7,18.1c0-3.4,2.8-6.2,6.2-6.2c1.6,0,3,0.6,4.1,1.6
		c0.3-0.2,0.6-0.4,0.9-0.5c-1.3-1.2-3-2-4.9-2c-3.9,0-7.1,3.2-7.1,7.1C6,20.2,7,22.2,8.5,23.5z"/>
	<g>
		<path class="st1" d="M13.2,9.5c-0.3,0-0.5-0.2-0.5-0.5V5.4c0-0.3,0.2-0.5,0.5-0.5c0.3,0,0.5,0.2,0.5,0.5V9
			C13.6,9.2,13.4,9.5,13.2,9.5z"/>
	</g>
	<g>
		<path class="st1" d="M6.7,12.1c-0.1,0-0.2,0-0.3-0.1L3.9,9.4c-0.2-0.2-0.2-0.5,0-0.7c0.2-0.2,0.5-0.2,0.7,0l2.5,2.5
			c0.2,0.2,0.2,0.5,0,0.7C7,12.1,6.9,12.1,6.7,12.1z"/>
	</g>
	<g>
		<path class="st1" d="M4.1,18.5H0.5c-0.3,0-0.5-0.2-0.5-0.5s0.2-0.5,0.5-0.5h3.6c0.3,0,0.5,0.2,0.5,0.5S4.3,18.5,4.1,18.5z"/>
	</g>
	<g>
		<path class="st1" d="M4.2,27.5c-0.1,0-0.2,0-0.3-0.1c-0.2-0.2-0.2-0.5,0-0.7l2.5-2.5c0.2-0.2,0.5-0.2,0.7,0c0.2,0.2,0.2,0.5,0,0.7
			l-2.5,2.5C4.4,27.5,4.3,27.5,4.2,27.5z"/>
	</g>
	<g>
		<path class="st1" d="M19.6,12.1c-0.1,0-0.2,0-0.3-0.1c-0.2-0.2-0.2-0.5,0-0.7l2.5-2.5c0.2-0.2,0.5-0.2,0.7,0
			c0.2,0.2,0.2,0.5,0,0.7L19.9,12C19.8,12.1,19.7,12.1,19.6,12.1z"/>
	</g>
</g>
</svg>
