<?xml version="1.0" encoding="utf-8"?>
<!-- Generator: Adobe Illustrator 25.4.1, SVG Export Plug-In . SVG Version: 6.00 Build 0)  -->
<svg version="1.1" id="Layer_1" xmlns="http://www.w3.org/2000/svg" xmlns:xlink="http://www.w3.org/1999/xlink" x="0px" y="0px"
	 viewBox="0 0 40 40" style="enable-background:new 0 0 40 40;" xml:space="preserve">
<style type="text/css">
	.st0{fill:#9DD3FF;}
	.st1{fill:#FFFFFF;}
</style>
<g>
	<path class="st0" d="M17.8,27.8L17.8,27.8L17.8,27.8c0.1-0.4-0.1-3.6-0.1-3.6c0-0.1-0.1-0.2-0.2-0.1c0,0-2.8,1.6-3,1.9l0,0l0,0
		c-0.1,0.1-0.2,0.2-0.3,0.4c-0.5,1-0.1,2.1,0.8,2.7s2.1,0.1,2.7-0.8C17.7,28.1,17.8,28,17.8,27.8z"/>
	<path class="st0" d="M18.6,35L18.6,35L18.6,35c0.1-0.4-0.1-3.6-0.1-3.6c0-0.1-0.1-0.2-0.2-0.1c0,0-2.8,1.6-3,1.9l0,0l0,0
		c-0.1,0.1-0.2,0.2-0.3,0.4c-0.5,1-0.1,2.1,0.8,2.7c1,0.5,2.1,0.1,2.7-0.8C18.5,35.3,18.6,35.1,18.6,35z"/>
	<path class="st0" d="M25,30.1L25,30.1L25,30.1c0.1-0.4-0.1-3.6-0.1-3.6c0-0.1-0.1-0.2-0.2-0.1c0,0-2.8,1.6-3,1.9l0,0l0,0
		c-0.1,0.1-0.2,0.2-0.3,0.4c-0.5,1-0.1,2.1,0.8,2.7c1,0.5,2.1,0.1,2.7-0.8C24.9,30.4,25,30.3,25,30.1z"/>
	<path class="st1" d="M31.2,11.5c-1.9-4.7-6.4-7.8-11.5-7.8C13,3.7,7.6,9,7.4,15.7C3.3,15.9,0,19.3,0,23.5c0,4,3,7.3,6.9,7.7v0.1h3
		v-1.4H8.3l-0.7,0c-3.5-0.1-6.2-2.9-6.2-6.4c0-3.5,2.9-6.4,6.4-6.4h0l1,0l0-1.1c0-6,4.9-10.9,10.9-10.9c4.3,0,8.1,2.6,9.9,6.4
		c-4.2,0.5-6.7,2.2-8.1,5.4c-0.2,0.4,0,0.8,0.4,0.9c0.1,0,0.2,0.1,0.3,0.1c0.3,0,0.5-0.2,0.7-0.4c1.2-2.9,3.7-4.3,7.8-4.6
		c4.4,0.4,7.7,4.1,7.7,8.5c0,4.7-3.6,8.4-8.3,8.5h-0.9v1.4h0.9l0.7,0v0c5.1-0.5,9-4.7,9-9.9C39.8,16.4,36.1,12.1,31.2,11.5z"/>
</g>
</svg>
