<?xml version="1.0" encoding="utf-8"?>
<!-- Generator: Adobe Illustrator 25.4.1, SVG Export Plug-In . SVG Version: 6.00 Build 0)  -->
<svg version="1.1" id="Layer_1" xmlns="http://www.w3.org/2000/svg" xmlns:xlink="http://www.w3.org/1999/xlink" x="0px" y="0px"
	 viewBox="0 0 40 40" style="enable-background:new 0 0 40 40;" xml:space="preserve">
<style type="text/css">
	.st0{fill:#FFFFFF;}
</style>
<g>
	<path class="st0" d="M1.7,22.8c0.7-2.7,3.2-4.7,6.2-4.7h0l1,0l0-1.1c0-6,4.9-10.9,10.9-10.9c4.3,0,8.1,2.5,9.9,6.4
		c-4.1,0.5-6.7,2.2-8.1,5.3c-0.2,0.4,0,0.8,0.4,0.9c0.1,0,0.2,0.1,0.3,0.1c0.3,0,0.5-0.2,0.7-0.4c1.2-2.9,3.7-4.3,7.8-4.6
		c4.3,0.4,7.7,4.1,7.7,8.5c0,0.2,0,0.3,0,0.5h1.4c0-0.2,0-0.3,0-0.5c0-4.9-3.7-9.2-8.6-9.8c-1.9-4.7-6.4-7.7-11.4-7.7
		c-6.7,0-12.1,5.3-12.3,11.9c-3.5,0.2-6.4,2.8-7.2,6.2C0.3,22.8,1.7,22.8,1.7,22.8z"/>
	<g>
		<path class="st0" d="M20.5,30.4H3.6c-0.4,0-0.7-0.3-0.7-0.7c0-0.4,0.3-0.7,0.7-0.7h16.9c0.4,0,0.7,0.3,0.7,0.7
			C21.2,30.1,20.9,30.4,20.5,30.4z"/>
	</g>
	<g>
		<path class="st0" d="M39.1,25.7H0.9c-0.4,0-0.7-0.3-0.7-0.7c0-0.4,0.3-0.7,0.7-0.7h38.3c0.4,0,0.7,0.3,0.7,0.7
			C39.9,25.4,39.5,25.7,39.1,25.7z"/>
	</g>
	<g>
		<path class="st0" d="M33.8,35.2H7.5c-0.4,0-0.7-0.3-0.7-0.7s0.3-0.7,0.7-0.7h26.4c0.4,0,0.7,0.3,0.7,0.7S34.2,35.2,33.8,35.2z"/>
	</g>
</g>
</svg>
