<?xml version="1.0" encoding="utf-8"?>
<!-- Generator: Adobe Illustrator 25.4.1, SVG Export Plug-In . SVG Version: 6.00 Build 0)  -->
<svg version="1.1" id="Layer_1" xmlns="http://www.w3.org/2000/svg" xmlns:xlink="http://www.w3.org/1999/xlink" x="0px" y="0px"
	 viewBox="0 0 40 40" style="enable-background:new 0 0 40 40;" xml:space="preserve">
<style type="text/css">
	.st0{fill:#FFFFFF;}
</style>
<g>
	<path class="st0" d="M31.3,12c-1.9-4.7-6.4-7.8-11.5-7.8c-6.7,0-12.2,5.4-12.4,12C3.3,16.5,0,19.9,0,24.1c0,4,3,7.3,6.9,7.8v0.1
		h3.2v-1.4H8.3l-0.7,0c-3.5-0.1-6.2-2.9-6.2-6.4c0-3.5,2.9-6.4,6.4-6.4h0l1,0l0-1.1c0-6,4.9-11,11-11c4.3,0,8.2,2.6,9.9,6.4
		c-4.2,0.5-6.8,2.2-8.1,5.4c-0.2,0.4,0,0.8,0.4,0.9c0.1,0,0.2,0.1,0.3,0.1c0.3,0,0.5-0.2,0.7-0.4c1.2-2.9,3.7-4.3,7.9-4.6
		c4.4,0.4,7.8,4.1,7.8,8.5c0,4.3-3.2,7.9-7.4,8.5v1.4c5-0.6,8.8-4.8,8.8-9.9C39.9,17,36.2,12.7,31.3,12z"/>
	<path class="st0" d="M16.4,26.8l0.3-0.3c0.3-0.3,0.3-0.7,0-1c-0.3-0.3-0.7-0.3-1,0l-0.3,0.3l-0.3-0.3c-0.3-0.3-0.7-0.3-1,0
		c-0.3,0.3-0.3,0.7,0,1l0.3,0.3l-0.3,0.3c-0.3,0.3-0.3,0.7,0,1c0.1,0.1,0.3,0.2,0.5,0.2s0.4-0.1,0.5-0.2l0.3-0.3l0.3,0.3
		c0.1,0.1,0.3,0.2,0.5,0.2s0.4-0.1,0.5-0.2c0.3-0.3,0.3-0.7,0-1L16.4,26.8z"/>
	<path class="st0" d="M21.6,30.3l0.3-0.3c0.3-0.3,0.3-0.7,0-1c-0.3-0.3-0.7-0.3-1,0l-0.3,0.3L20.3,29c-0.3-0.3-0.7-0.3-1,0
		c-0.3,0.3-0.3,0.7,0,1l0.3,0.3l-0.3,0.3c-0.3,0.3-0.3,0.7,0,1c0.1,0.1,0.3,0.2,0.5,0.2c0.2,0,0.4-0.1,0.5-0.2l0.3-0.3l0.3,0.3
		c0.1,0.1,0.3,0.2,0.5,0.2c0.2,0,0.4-0.1,0.5-0.2c0.3-0.3,0.3-0.7,0-1L21.6,30.3z"/>
	<path class="st0" d="M16.4,33.9l0.3-0.3c0.3-0.3,0.3-0.7,0-1c-0.3-0.3-0.7-0.3-1,0l-0.3,0.3l-0.3-0.3c-0.3-0.3-0.7-0.3-1,0
		c-0.3,0.3-0.3,0.7,0,1l0.3,0.3l-0.3,0.3c-0.3,0.3-0.3,0.7,0,1c0.1,0.1,0.3,0.2,0.5,0.2s0.4-0.1,0.5-0.2l0.3-0.3l0.3,0.3
		c0.1,0.1,0.3,0.2,0.5,0.2s0.4-0.1,0.5-0.2c0.3-0.3,0.3-0.7,0-1L16.4,33.9z"/>
	<path class="st0" d="M26.7,26.8l0.3-0.3c0.3-0.3,0.3-0.7,0-1c-0.3-0.3-0.7-0.3-1,0l-0.3,0.3l-0.3-0.3c-0.3-0.3-0.7-0.3-1,0
		c-0.3,0.3-0.3,0.7,0,1l0.3,0.3l-0.3,0.3c-0.3,0.3-0.3,0.7,0,1c0.1,0.1,0.3,0.2,0.5,0.2c0.2,0,0.4-0.1,0.5-0.2l0.3-0.3l0.3,0.3
		c0.1,0.1,0.3,0.2,0.5,0.2c0.2,0,0.4-0.1,0.5-0.2c0.3-0.3,0.3-0.7,0-1L26.7,26.8z"/>
	<path class="st0" d="M26.7,33.9l0.3-0.3c0.3-0.3,0.3-0.7,0-1c-0.3-0.3-0.7-0.3-1,0l-0.3,0.3l-0.3-0.3c-0.3-0.3-0.7-0.3-1,0
		c-0.3,0.3-0.3,0.7,0,1l0.3,0.3l-0.3,0.3c-0.3,0.3-0.3,0.7,0,1c0.1,0.1,0.3,0.2,0.5,0.2c0.2,0,0.4-0.1,0.5-0.2l0.3-0.3l0.3,0.3
		c0.1,0.1,0.3,0.2,0.5,0.2c0.2,0,0.4-0.1,0.5-0.2c0.3-0.3,0.3-0.7,0-1L26.7,33.9z"/>
</g>
</svg>
