<?xml version="1.0" encoding="utf-8"?>
<!-- Generator: Adobe Illustrator 25.4.1, SVG Export Plug-In . SVG Version: 6.00 Build 0)  -->
<svg version="1.1" id="Layer_1" xmlns="http://www.w3.org/2000/svg" xmlns:xlink="http://www.w3.org/1999/xlink" x="0px" y="0px"
	 viewBox="0 0 40 40" style="enable-background:new 0 0 40 40;" xml:space="preserve">
<style type="text/css">
	.st0{fill:#FFFFFF;}
</style>
<g>
	<path class="st0" d="M20.7,40c-11,0-20-9-20-20c0-11,9-20,20-20h1.9l-1.2,1.5c-2.4,3-3.6,6.5-3.6,10.3c0,9.1,7.4,16.5,16.5,16.5
		c1,0,2-0.1,3-0.3l1.9-0.4l-0.9,1.7C34.9,35.9,28.1,40,20.7,40z M18.9,2C9.7,2.9,2.6,10.6,2.6,20c0,10,8.1,18.1,18.1,18.1
		c6.1,0,11.7-3,15-8C25.1,31,16,22.5,16,11.9C16,8.3,17,4.9,18.9,2z"/>
</g>
</svg>
