<?xml version="1.0" encoding="utf-8"?>
<!-- Generator: Adobe Illustrator 25.4.1, SVG Export Plug-In . SVG Version: 6.00 Build 0)  -->
<svg version="1.1" id="Layer_1" xmlns="http://www.w3.org/2000/svg" xmlns:xlink="http://www.w3.org/1999/xlink" x="0px" y="0px"
	 viewBox="0 0 40 40" style="enable-background:new 0 0 40 40;" xml:space="preserve">
<style type="text/css">
	.st0{fill:#FFFFFF;}
</style>
<g>
	<path class="st0" d="M31.4,11.6C29.5,7,24.9,3.8,19.8,3.8c-6.7,0-12.2,5.4-12.4,12.1C3.3,16.1,0,19.5,0,23.7c0,4,3,7.3,6.9,7.8v0.1
		h2.8v-1.4H8.3l-0.7,0c-3.5-0.1-6.2-2.9-6.2-6.4c0-3.5,2.9-6.4,6.5-6.4h0l1,0.1l0-1.1c0-6.1,4.9-11,11-11c4.3,0,8.2,2.6,10,6.4
		c-4.2,0.5-6.8,2.2-8.2,5.4c-0.2,0.4,0,0.8,0.4,0.9c0.1,0,0.2,0.1,0.3,0.1c0.3,0,0.5-0.2,0.7-0.4c1.2-2.9,3.7-4.4,7.9-4.6
		c4.4,0.4,7.8,4.2,7.8,8.5c0,4.7-3.7,8.4-8.3,8.6h-0.6v1.4h0.6l0.7,0v0c5.1-0.5,9-4.7,9-10C40.1,16.6,36.3,12.3,31.4,11.6z"/>
	<circle class="st0" cx="17.9" cy="33.3" r="2.6"/>
	<circle class="st0" cx="24" cy="27.9" r="2.4"/>
	<circle class="st0" cx="15.4" cy="25.4" r="2"/>
</g>
</svg>
