<?xml version="1.0" encoding="utf-8"?>
<!-- Generator: Adobe Illustrator 25.4.1, SVG Export Plug-In . SVG Version: 6.00 Build 0)  -->
<svg version="1.1" id="Layer_1" xmlns="http://www.w3.org/2000/svg" xmlns:xlink="http://www.w3.org/1999/xlink" x="0px" y="0px"
	 viewBox="0 0 40 40" style="enable-background:new 0 0 40 40;" xml:space="preserve">
<style type="text/css">
	.st0{fill:#FFFFFF;}
</style>
<g>
	<g>
		<path class="st0" d="M10.1,5.9l0.2-0.2c0.2-0.2,0.2-0.6,0-0.8c-0.2-0.2-0.6-0.2-0.8,0L9.3,5.1L9.1,4.9c-0.2-0.2-0.6-0.2-0.8,0
			c-0.2,0.2-0.2,0.6,0,0.8l0.2,0.2L8.3,6.1c-0.2,0.2-0.2,0.6,0,0.8C8.4,7,8.6,7.1,8.7,7.1C8.9,7.1,9,7,9.1,6.9l0.2-0.2l0.2,0.2
			C9.7,7,9.8,7.1,10,7.1c0.1,0,0.3-0.1,0.4-0.2c0.2-0.2,0.2-0.6,0-0.8L10.1,5.9z"/>
	</g>
	<g>
		<path class="st0" d="M38.8,14.8l0.2-0.2c0.2-0.2,0.2-0.6,0-0.8c-0.2-0.2-0.6-0.2-0.8,0L38,14l-0.2-0.2c-0.2-0.2-0.6-0.2-0.8,0
			c-0.2,0.2-0.2,0.6,0,0.8l0.2,0.2L37,15c-0.2,0.2-0.2,0.6,0,0.8c0.1,0.1,0.2,0.2,0.4,0.2c0.1,0,0.3-0.1,0.4-0.2l0.2-0.2l0.2,0.2
			c0.1,0.1,0.2,0.2,0.4,0.2s0.3-0.1,0.4-0.2c0.2-0.2,0.2-0.6,0-0.8L38.8,14.8z"/>
	</g>
	<g>
		<path class="st0" d="M39.5,28l0.2-0.2c0.2-0.2,0.2-0.6,0-0.8c-0.2-0.2-0.6-0.2-0.8,0l-0.2,0.2L38.5,27c-0.2-0.2-0.6-0.2-0.8,0
			c-0.2,0.2-0.2,0.6,0,0.8L38,28l-0.2,0.2c-0.2,0.2-0.2,0.6,0,0.8c0.1,0.1,0.2,0.2,0.4,0.2s0.3-0.1,0.4-0.2l0.2-0.2L39,29
			c0.1,0.1,0.2,0.2,0.4,0.2c0.1,0,0.3-0.1,0.4-0.2c0.2-0.2,0.2-0.6,0-0.8L39.5,28z"/>
	</g>
	<g>
		<path class="st0" d="M27.7,32.7l0.2-0.2c0.2-0.2,0.2-0.6,0-0.8s-0.6-0.2-0.8,0L26.9,32l-0.2-0.2c-0.2-0.2-0.6-0.2-0.8,0
			s-0.2,0.6,0,0.8l0.2,0.2L25.9,33c-0.2,0.2-0.2,0.6,0,0.8c0.1,0.1,0.2,0.2,0.4,0.2c0.1,0,0.3-0.1,0.4-0.2l0.2-0.2l0.2,0.2
			c0.1,0.1,0.2,0.2,0.4,0.2c0.1,0,0.3-0.1,0.4-0.2c0.2-0.2,0.2-0.6,0-0.8L27.7,32.7z"/>
	</g>
	<g>
		<path class="st0" d="M5,21.9l0.2-0.2c0.2-0.2,0.2-0.6,0-0.8c-0.2-0.2-0.6-0.2-0.8,0l-0.2,0.2L4,20.9c-0.2-0.2-0.6-0.2-0.8,0
			c-0.2,0.2-0.2,0.6,0,0.8l0.2,0.2l-0.2,0.2c-0.2,0.2-0.2,0.6,0,0.8c0.1,0.1,0.2,0.2,0.4,0.2c0.1,0,0.3-0.1,0.4-0.2l0.2-0.2l0.2,0.2
			c0.1,0.1,0.2,0.2,0.4,0.2c0.1,0,0.3-0.1,0.4-0.2c0.2-0.2,0.2-0.6,0-0.8L5,21.9z"/>
	</g>
	<g>
		<path class="st0" d="M37.6,11.5H0.8c-0.4,0-0.7-0.3-0.7-0.7c0-0.4,0.3-0.7,0.7-0.7h36.8c0.4,0,0.7,0.3,0.7,0.7
			C38.3,11.2,38,11.5,37.6,11.5z"/>
	</g>
	<g>
		<path class="st0" d="M33.1,16.2H3.8c-0.4,0-0.7-0.3-0.7-0.7c0-0.4,0.3-0.7,0.7-0.7h29.3c0.4,0,0.7,0.3,0.7,0.7
			C33.8,15.9,33.5,16.2,33.1,16.2z"/>
	</g>
	<g>
		<path class="st0" d="M35.4,21H12.1c-0.4,0-0.7-0.3-0.7-0.7c0-0.4,0.3-0.7,0.7-0.7h23.3c0.4,0,0.7,0.3,0.7,0.7
			C36.1,20.7,35.8,21,35.4,21z"/>
	</g>
	<g>
		<path class="st0" d="M33.4,25.6H14.9c-0.4,0-0.7-0.3-0.7-0.7c0-0.4,0.3-0.7,0.7-0.7h18.5c0.4,0,0.7,0.3,0.7,0.7
			C34.1,25.3,33.7,25.6,33.4,25.6z"/>
	</g>
	<g>
		<path class="st0" d="M22.9,30.2H12.1c-0.4,0-0.7-0.3-0.7-0.7c0-0.4,0.3-0.7,0.7-0.7h10.8c0.4,0,0.7,0.3,0.7,0.7
			C23.6,29.9,23.3,30.2,22.9,30.2z"/>
	</g>
	<g>
		<path class="st0" d="M18.5,35.3h-8.4c-0.4,0-0.7-0.3-0.7-0.7c0-0.4,0.3-0.7,0.7-0.7h8.4c0.4,0,0.7,0.3,0.7,0.7
			C19.1,35,18.8,35.3,18.5,35.3z"/>
	</g>
</g>
</svg>
