<?xml version="1.0" encoding="utf-8"?>
<!-- Generator: Adobe Illustrator 25.4.1, SVG Export Plug-In . SVG Version: 6.00 Build 0)  -->
<svg version="1.1" id="Layer_1" xmlns="http://www.w3.org/2000/svg" xmlns:xlink="http://www.w3.org/1999/xlink" x="0px" y="0px"
	 viewBox="0 0 40 40" style="enable-background:new 0 0 40 40;" xml:space="preserve">
<style type="text/css">
	.st0{fill:#FFFFFF;}
</style>
<g>
	<path class="st0" d="M34.1,23.3c-0.3-0.3-0.7-0.3-1,0l-0.3,0.3l-0.3-0.3c-0.3-0.3-0.7-0.3-1,0s-0.3,0.7,0,1l0.3,0.3l-0.3,0.3
		c-0.3,0.3-0.3,0.7,0,1c0.1,0.1,0.3,0.2,0.5,0.2c0.2,0,0.4-0.1,0.5-0.2l0.3-0.3l0.3,0.3c0.1,0.1,0.3,0.2,0.5,0.2
		c0.2,0,0.4-0.1,0.5-0.2c0.3-0.3,0.3-0.7,0-1l-0.3-0.3l0.3-0.3C34.4,24,34.4,23.6,34.1,23.3z"/>
	<path class="st0" d="M39.5,18l0.3-0.3c0.3-0.3,0.3-0.7,0-1c-0.3-0.3-0.7-0.3-1,0L38.5,17l-0.3-0.3c-0.3-0.3-0.7-0.3-1,0
		s-0.3,0.7,0,1l0.3,0.3l-0.3,0.3c-0.3,0.3-0.3,0.7,0,1c0.1,0.1,0.3,0.2,0.5,0.2c0.2,0,0.4-0.1,0.5-0.2l0.3-0.3l0.3,0.3
		c0.1,0.1,0.3,0.2,0.5,0.2c0.2,0,0.4-0.1,0.5-0.2c0.3-0.3,0.3-0.7,0-1L39.5,18z"/>
	<path class="st0" d="M9.1,12.5c0.1,0.1,0.3,0.2,0.5,0.2s0.4-0.1,0.5-0.2l0.3-0.3l0.3,0.3c0.1,0.1,0.3,0.2,0.5,0.2s0.4-0.1,0.5-0.2
		c0.3-0.3,0.3-0.7,0-1l-0.3-0.3l0.3-0.3c0.3-0.3,0.3-0.7,0-1c-0.3-0.3-0.7-0.3-1,0l-0.3,0.3L10,9.9c-0.3-0.3-0.7-0.3-1,0
		c-0.3,0.3-0.3,0.7,0,1l0.3,0.3l-0.3,0.3C8.8,11.7,8.8,12.2,9.1,12.5z"/>
	<path class="st0" d="M13.9,28.2c-0.3-0.3-0.7-0.3-1,0l-0.3,0.3l-0.3-0.3c-0.3-0.3-0.7-0.3-1,0s-0.3,0.7,0,1l0.3,0.3l-0.3,0.3
		c-0.3,0.3-0.3,0.7,0,1c0.1,0.1,0.3,0.2,0.5,0.2s0.4-0.1,0.5-0.2l0.3-0.3l0.3,0.3c0.1,0.1,0.3,0.2,0.5,0.2s0.4-0.1,0.5-0.2
		c0.3-0.3,0.3-0.7,0-1l-0.3-0.3l0.3-0.3C14.2,28.9,14.2,28.5,13.9,28.2z"/>
	<path class="st0" d="M27.1,4c-1.3,0-2.6,0.3-3.8,0.9c-0.4,0.2-0.5,0.6-0.3,1c0.2,0.4,0.6,0.5,1,0.3c1-0.5,2-0.8,3.1-0.8
		c3.7,0,6.7,3,6.7,6.7s-3,6.7-6.7,6.7H0.7c-0.4,0-0.7,0.3-0.7,0.7c0,0.4,0.3,0.7,0.7,0.7c0,0,27.2,0,27.3,0c4.1-0.4,7.4-3.9,7.4-8.2
		C35.4,7.7,31.7,4,27.1,4z"/>
	<path class="st0" d="M23.2,25.6c-0.1,0-17.5-0.1-17.5-0.1c-0.4,0-0.7,0.3-0.7,0.7s0.3,0.7,0.7,0.7h16.8c2.4,0,4.4,2,4.4,4.4
		s-2,4.4-4.4,4.4s-4.4-2-4.4-4.4c0-0.4-0.3-0.7-0.7-0.7s-0.7,0.3-0.7,0.7c0,3.3,2.7,5.9,5.9,5.9s5.9-2.7,5.9-5.9
		C28.3,28.5,26.1,26,23.2,25.6z"/>
	<path class="st0" d="M5,16.5c0,0,13.7,0,13.7-0.1c2.3-0.3,4-2.2,4-4.6c0-2.6-2.1-4.6-4.6-4.6s-4.6,2.1-4.6,4.6
		c0,0.3,0.3,0.6,0.6,0.6s0.6-0.3,0.6-0.6c0-1.9,1.6-3.5,3.5-3.5c1.9,0,3.5,1.6,3.5,3.5s-1.6,3.5-3.5,3.5H5c-0.3,0-0.6,0.3-0.6,0.6
		C4.5,16.2,4.7,16.5,5,16.5z"/>
</g>
</svg>
