<?xml version="1.0" encoding="utf-8"?>
<!-- Generator: Adobe Illustrator 25.4.1, SVG Export Plug-In . SVG Version: 6.00 Build 0)  -->
<svg version="1.1" id="Layer_1" xmlns="http://www.w3.org/2000/svg" xmlns:xlink="http://www.w3.org/1999/xlink" x="0px" y="0px"
	 viewBox="0 0 40 40" style="enable-background:new 0 0 40 40;" xml:space="preserve">
<style type="text/css">
	.st0{fill:#EFD10E;}
</style>
<g>
	<g>
		<path class="st0" d="M20,30.9C14,30.9,9.1,26,9.1,20S14,9.1,20,9.1S30.9,14,30.9,20S26,30.9,20,30.9z M20,10.6
			c-5.2,0-9.4,4.2-9.4,9.4s4.2,9.4,9.4,9.4s9.4-4.2,9.4-9.4S25.2,10.6,20,10.6z"/>
	</g>
	<g>
		<path class="st0" d="M20,6.9c-0.4,0-0.7-0.3-0.7-0.7V0.7C19.3,0.3,19.6,0,20,0c0.4,0,0.7,0.3,0.7,0.7v5.5
			C20.7,6.6,20.4,6.9,20,6.9z"/>
	</g>
	<g>
		<path class="st0" d="M10.2,11c-0.2,0-0.4-0.1-0.5-0.2L5.9,6.9c-0.3-0.3-0.3-0.7,0-1s0.7-0.3,1,0l3.9,3.9c0.3,0.3,0.3,0.7,0,1
			C10.6,10.9,10.4,11,10.2,11z"/>
	</g>
	<g>
		<path class="st0" d="M6.2,20.7H0.7C0.3,20.7,0,20.4,0,20c0-0.4,0.3-0.7,0.7-0.7h5.5c0.4,0,0.7,0.3,0.7,0.7
			C6.9,20.4,6.6,20.7,6.2,20.7z"/>
	</g>
	<g>
		<path class="st0" d="M6.4,34.4c-0.2,0-0.4-0.1-0.5-0.2c-0.3-0.3-0.3-0.7,0-1l3.9-3.9c0.3-0.3,0.7-0.3,1,0s0.3,0.7,0,1l-3.9,3.9
			C6.7,34.3,6.5,34.4,6.4,34.4z"/>
	</g>
	<g>
		<path class="st0" d="M20,40c-0.4,0-0.7-0.3-0.7-0.7v-5.5c0-0.4,0.3-0.7,0.7-0.7c0.4,0,0.7,0.3,0.7,0.7v5.5
			C20.7,39.7,20.4,40,20,40z"/>
	</g>
	<g>
		<path class="st0" d="M33.6,34.4c-0.2,0-0.4-0.1-0.5-0.2l-3.9-3.9c-0.3-0.3-0.3-0.7,0-1s0.7-0.3,1,0l3.9,3.9c0.3,0.3,0.3,0.7,0,1
			C34,34.3,33.8,34.4,33.6,34.4z"/>
	</g>
	<g>
		<path class="st0" d="M39.3,20.7h-5.5c-0.4,0-0.7-0.3-0.7-0.7c0-0.4,0.3-0.7,0.7-0.7h5.5c0.4,0,0.7,0.3,0.7,0.7
			C40,20.4,39.7,20.7,39.3,20.7z"/>
	</g>
	<g>
		<path class="st0" d="M29.8,11c-0.2,0-0.4-0.1-0.5-0.2c-0.3-0.3-0.3-0.7,0-1l3.9-3.9c0.3-0.3,0.7-0.3,1,0c0.3,0.3,0.3,0.7,0,1
			l-3.9,3.9C30.1,10.9,29.9,11,29.8,11z"/>
	</g>
</g>
</svg>
