<?xml version="1.0" encoding="utf-8"?>
<!-- Generator: Adobe Illustrator 25.4.1, SVG Export Plug-In . SVG Version: 6.00 Build 0)  -->
<svg version="1.1" id="Layer_1" xmlns="http://www.w3.org/2000/svg" xmlns:xlink="http://www.w3.org/1999/xlink" x="0px" y="0px"
	 viewBox="0 0 40 40" style="enable-background:new 0 0 40 40;" xml:space="preserve">
<style type="text/css">
	.st0{fill:#FFFFFF;}
</style>
<g>
	<path class="st0" d="M31.8,15.8c0.3,0,0.6-0.3,0.6-0.6s-0.3-0.6-0.6-0.6h-27c-2,0-3.6-1.6-3.6-3.6s1.6-3.6,3.6-3.6
		c1.4,0,2.6,0.8,3.2,2c0.1,0.3,0.5,0.4,0.8,0.3s0.4-0.5,0.3-0.8C8.3,7.1,6.7,6.1,4.8,6.1C2.2,6.1,0,8.3,0,10.9s2.2,4.8,4.8,4.8
		L31.8,15.8L31.8,15.8z"/>
	<path class="st0" d="M35.1,19.7h-27c-0.3,0-0.6,0.3-0.6,0.6S7.7,21,8.1,21h27c2,0,3.6,1.6,3.6,3.6c0,2-1.6,3.6-3.6,3.6
		c-1.4,0-2.6-0.8-3.2-2c-0.1-0.3-0.5-0.4-0.8-0.3c-0.3,0.1-0.4,0.5-0.3,0.8c0.8,1.6,2.5,2.7,4.3,2.7c2.7,0,4.8-2.2,4.8-4.8
		S37.7,19.7,35.1,19.7z"/>
	<path class="st0" d="M13.6,9.1h6.7c0.3,0,0.6-0.3,0.6-0.6c0-0.3-0.3-0.6-0.6-0.6h-6.7c-0.3,0-0.6,0.3-0.6,0.6
		C12.9,8.8,13.2,9.1,13.6,9.1z"/>
	<path class="st0" d="M23.8,9.1h6.4c0.3,0,0.6-0.3,0.6-0.6c0-0.3-0.3-0.6-0.6-0.6h-6.4c-0.3,0-0.6,0.3-0.6,0.6
		C23.1,8.8,23.4,9.1,23.8,9.1z"/>
	<path class="st0" d="M33.7,9.4h1.8c0.3,0,0.6-0.3,0.6-0.6s-0.3-0.6-0.6-0.6h-1.8c-0.3,0-0.6,0.3-0.6,0.6S33.3,9.4,33.7,9.4z"/>
	<path class="st0" d="M11.1,26.4H4.8c-0.3,0-0.6,0.3-0.6,0.6s0.3,0.6,0.6,0.6h6.2c0.3,0,0.6-0.3,0.6-0.6S11.4,26.4,11.1,26.4z"/>
	<path class="st0" d="M22.2,27c0-0.3-0.3-0.6-0.6-0.6h-6.8c-0.3,0-0.6,0.3-0.6,0.6s0.3,0.6,0.6,0.6h6.8C21.9,27.6,22.2,27.3,22.2,27
		z"/>
	<path class="st0" d="M26.6,27.6c0.3,0,0.6-0.3,0.6-0.6s-0.3-0.6-0.6-0.6h-2c-0.3,0-0.6,0.3-0.6,0.6s0.3,0.6,0.6,0.6H26.6z"/>
	<path class="st0" d="M27.9,32.5h-9.5c-0.3,0-0.6,0.3-0.6,0.6s0.3,0.6,0.6,0.6h9.5c0.3,0,0.6-0.3,0.6-0.6S28.2,32.5,27.9,32.5z"/>
</g>
</svg>
