<?xml version="1.0" encoding="utf-8"?>
<!-- Generator: Adobe Illustrator 25.4.1, SVG Export Plug-In . SVG Version: 6.00 Build 0)  -->
<svg version="1.1" id="Layer_1" xmlns="http://www.w3.org/2000/svg" xmlns:xlink="http://www.w3.org/1999/xlink" x="0px" y="0px"
	 viewBox="0 0 40 40" style="enable-background:new 0 0 40 40;" xml:space="preserve">
<style type="text/css">
	.st0{fill:#FFFFFF;}
</style>
<g>
	<path class="st0" d="M34.5,30.3l0.3-0.3c0.3-0.3,0.3-0.7,0-1c-0.3-0.3-0.7-0.3-1,0l-0.3,0.3L33.3,29c-0.3-0.3-0.7-0.3-1,0
		c-0.3,0.3-0.3,0.7,0,1l0.3,0.3l-0.3,0.3c-0.3,0.3-0.3,0.7,0,1c0.1,0.1,0.3,0.2,0.5,0.2s0.4-0.1,0.5-0.2l0.3-0.3l0.3,0.3
		c0.1,0.1,0.3,0.2,0.5,0.2s0.4-0.1,0.5-0.2c0.3-0.3,0.3-0.7,0-1L34.5,30.3z"/>
	<path class="st0" d="M30.2,24.2l0.3-0.3c0.3-0.3,0.3-0.7,0-1c-0.3-0.3-0.7-0.3-1,0l-0.3,0.3l-0.3-0.3c-0.3-0.3-0.7-0.3-1,0
		c-0.3,0.3-0.3,0.7,0,1l0.3,0.3l-0.3,0.3c-0.3,0.3-0.3,0.7,0,1c0.1,0.1,0.3,0.2,0.5,0.2s0.4-0.1,0.5-0.2l0.3-0.3l0.3,0.3
		c0.1,0.1,0.3,0.2,0.5,0.2s0.4-0.1,0.5-0.2c0.3-0.3,0.3-0.7,0-1L30.2,24.2z"/>
	<path class="st0" d="M39.4,14.4l0.3-0.3c0.3-0.3,0.3-0.7,0-1s-0.7-0.3-1,0l-0.3,0.3l-0.3-0.3c-0.3-0.3-0.7-0.3-1,0s-0.3,0.7,0,1
		l0.3,0.3l-0.3,0.3c-0.3,0.3-0.3,0.7,0,1c0.1,0.1,0.3,0.2,0.5,0.2s0.4-0.1,0.5-0.2l0.3-0.3l0.3,0.3c0.1,0.1,0.3,0.2,0.5,0.2
		c0.2,0,0.4-0.1,0.5-0.2c0.3-0.3,0.3-0.7,0-1L39.4,14.4z"/>
	<path class="st0" d="M16.7,15.3L17,15c0.3-0.3,0.3-0.7,0-1c-0.3-0.3-0.7-0.3-1,0l-0.3,0.3L15.4,14c-0.3-0.3-0.7-0.3-1,0
		c-0.3,0.3-0.3,0.7,0,1l0.3,0.3l-0.3,0.3c-0.3,0.3-0.3,0.7,0,1c0.1,0.1,0.3,0.2,0.5,0.2s0.4-0.1,0.5-0.2l0.3-0.3l0.3,0.3
		c0.1,0.1,0.3,0.2,0.5,0.2s0.4-0.1,0.5-0.2c0.3-0.3,0.3-0.7,0-1L16.7,15.3z"/>
	<path class="st0" d="M27.9,11.3l0.3-0.3c0.3-0.3,0.3-0.7,0-1c-0.3-0.3-0.7-0.3-1,0l-0.3,0.3L26.7,10c-0.3-0.3-0.7-0.3-1,0
		c-0.3,0.3-0.3,0.7,0,1l0.3,0.3l-0.3,0.3c-0.3,0.3-0.3,0.7,0,1c0.1,0.1,0.3,0.2,0.5,0.2s0.4-0.1,0.5-0.2l0.3-0.3l0.3,0.3
		c0.1,0.1,0.3,0.2,0.5,0.2s0.4-0.1,0.5-0.2c0.3-0.3,0.3-0.7,0-1L27.9,11.3z"/>
	<path class="st0" d="M35.3,11.5c0-4.5-3.7-8.2-8.2-8.2s-8.2,3.7-8.2,8.2c0,0.4,0.3,0.7,0.7,0.7c0.4,0,0.7-0.3,0.7-0.7
		c0-3.7,3-6.7,6.7-6.7c3.7,0,6.7,3,6.7,6.7s-3,6.7-6.7,6.7H0.7C0.3,18.3,0,18.6,0,19c0,0.4,0.3,0.7,0.7,0.7h27c0.1,0,0.2,0,0.2,0
		C32.1,19.3,35.3,15.8,35.3,11.5z"/>
	<path class="st0" d="M23.1,24.9c-0.1,0-0.2-0.1-0.3-0.1H5.6c-0.4,0-0.7,0.3-0.7,0.7c0,0.4,0.3,0.7,0.7,0.7h16.7
		c2.4,0,4.4,2,4.4,4.4s-2,4.4-4.4,4.4s-4.4-2-4.4-4.4c0-0.4-0.3-0.7-0.7-0.7c-0.4,0-0.7,0.3-0.7,0.7c0,3.3,2.6,5.9,5.9,5.9
		s5.9-2.6,5.9-5.9C28.3,27.8,26,25.3,23.1,24.9z"/>
</g>
</svg>
